<svg width="22" height="18" viewBox="0 0 22 18" fill="none" xmlns="http://www.w3.org/2000/svg">
<path d="M15.1668 16.5V14.8333C15.1668 13.9493 14.8156 13.1014 14.1905 12.4763C13.5654 11.8512 12.7176 11.5 11.8335 11.5H5.16683C4.28277 11.5 3.43493 11.8512 2.80981 12.4763C2.18469 13.1014 1.8335 13.9493 1.8335 14.8333V16.5" stroke="#FAFAFA" stroke-width="2" stroke-linecap="round" stroke-linejoin="round"/>
<path d="M8.49984 8.16667C10.3408 8.16667 11.8332 6.67428 11.8332 4.83333C11.8332 2.99238 10.3408 1.5 8.49984 1.5C6.65889 1.5 5.1665 2.99238 5.1665 4.83333C5.1665 6.67428 6.65889 8.16667 8.49984 8.16667Z" stroke="#FAFAFA" stroke-width="2" stroke-linecap="round" stroke-linejoin="round"/>
<path d="M20.1665 16.5V14.8333C20.166 14.0948 19.9201 13.3773 19.4676 12.7936C19.0152 12.2099 18.3816 11.793 17.6665 11.6083" stroke="#FAFAFA" stroke-width="2" stroke-linecap="round" stroke-linejoin="round"/>
<path d="M14.3335 1.60834C15.0505 1.79192 15.686 2.20892 16.1399 2.7936C16.5937 3.37827 16.84 4.09736 16.84 4.8375C16.84 5.57765 16.5937 6.29674 16.1399 6.88141C15.686 7.46609 15.0505 7.88309 14.3335 8.06667" stroke="#FAFAFA" stroke-width="2" stroke-linecap="round" stroke-linejoin="round"/>
</svg>
